<svg xmlns="http://www.w3.org/2000/svg" viewBox="0 0 256 256" width="256" height="256" preserveAspectRatio="xMidYMid meet">
  <g fill="none" fillRule="evenodd">
    <path d="M0 0h256v256H0z" />
    <g transform="translate(36 36)">
      <path d="M92 0l28 36 24 6 6 28-10 22-36 8-36-8-10-22 6-28 24-6 28-36z" fill="#E2761B"/>
      <path d="M60 18l8 28-14 12-6-22 12-18z" fill="#F5851F"/>
      <path d="M124 18l12 18-6 22-14-12 8-28z" fill="#F5851F"/>
      <path d="M92 72l36 8-4 20-32 14-32-14-4-20 36-8z" fill="#C0AC9E"/>
      <path d="M68 110l12 24 12-6 12 6 12-24-12 12-12-6-12 6-12-12z" fill="#1B1B1F" opacity="0.6"/>
    </g>
  </g>
</svg>
